ffmpeg version 6.1.1-essentials_build-www.gyan.dev Copyright (c) 2000-2023 the FFmpeg developers
  built with gcc 12.2.0 (Rev10, Built by MSYS2 project)
  configuration: --enable-gpl --enable-version3 --enable-static --pkg-config=pkgconf --disable-w32threads --disable-autodetect --enable-fontconfig --enable-iconv --enable-gnutls --enable-libxml2 --enable-gmp --enable-bzlib --enable-lzma --enable-zlib --enable-libsrt --enable-libssh --enable-libzmq --enable-avisynth --enable-sdl2 --enable-libwebp --enable-libx264 --enable-libx265 --enable-libxvid --enable-libaom --enable-libopenjpeg --enable-libvpx --enable-mediafoundation --enable-libass --enable-libfreetype --enable-libfribidi --enable-libharfbuzz --enable-libvidstab --enable-libvmaf --enable-libzimg --enable-amf --enable-cuda-llvm --enable-cuvid --enable-ffnvcodec --enable-nvdec --enable-nvenc --enable-dxva2 --enable-d3d11va --enable-libvpl --enable-libgme --enable-libopenmpt --enable-libopencore-amrwb --enable-libmp3lame --enable-libtheora --enable-libvo-amrwbenc --enable-libgsm --enable-libopencore-amrnb --enable-libopus --enable-libspeex --enable-libvorbis --enable-librubberband
  libavutil      58. 29.100 / 58. 29.100
  libavcodec     60. 31.102 / 60. 31.102
  libavformat    60. 16.100 / 60. 16.100
  libavdevice    60.  3.100 / 60.  3.100
  libavfilter     9. 12.100 /  9. 12.100
  libswscale      7.  5.100 /  7.  5.100
  libswresample   4. 12.100 /  4. 12.100
  libpostproc    57.  3.100 / 57.  3.100
Input #0, lavfi, from 'color=size=2560x1440:duration=120:rate=30:color=black':
  Duration: N/A, start: 0.000000, bitrate: N/A
  Stream #0:0: Video: wrapped_avframe, yuv420p, 2560x1440 [SAR 1:1 DAR 16:9], 30 fps, 30 tbr, 30 tbn
[mov,mp4,m4a,3gp,3g2,mj2 @ 000001f3e6afdc00] Unknown cover type: 0x1.
Input #1, mov,mp4,m4a,3gp,3g2,mj2, from 'C:\Users\engsa\Desktop\CREATOCLONE\uploads\video-1766935064070-0.mp4':
  Metadata:
    major_brand     : qt  
    minor_version   : 0
    compatible_brands: qt  
    creation_time   : 2025-10-15T08:38:31.000000Z
  Duration: 00:00:24.64, start: 0.000000, bitrate: 16561 kb/s
  Stream #1:0[0x1](und): Video: h264 (High) (avc1 / 0x31637661), yuv420p(tv, bt709, progressive), 1972x1080, 16365 kb/s, 50 fps, 50 tbr, 600 tbn (default)
    Metadata:
      creation_time   : 2025-10-15T08:38:31.000000Z
      handler_name    : Core Media Video
      vendor_id       : [0][0][0][0]
      encoder         : H.264
  Stream #1:1[0x2](und): Audio: aac (LC) (mp4a / 0x6134706D), 44100 Hz, stereo, fltp, 188 kb/s (default)
    Metadata:
      creation_time   : 2025-10-15T08:38:31.000000Z
      handler_name    : Core Media Audio
      vendor_id       : [0][0][0][0]
Input #2, image2, from 'C:\Users\engsa\Desktop\CREATOCLONE\uploads\image-1766935064236-1.jpg':
  Duration: 00:00:00.04, start: 0.000000, bitrate: 3642 kb/s
  Stream #2:0: Video: mjpeg (Progressive), yuvj420p(pc, bt470bg/unknown/unknown), 400x400 [SAR 1:1 DAR 1:1], 25 fps, 25 tbr, 25 tbn
[mp3 @ 000001f3e6ae0d80] Estimating duration from bitrate, this may be inaccurate
Input #3, mp3, from 'C:\Users\engsa\Desktop\CREATOCLONE\uploads\audio-1766935064241-0.mp3':
  Metadata:
    encoder         : Lavf60.16.100
  Duration: 00:00:04.13, start: 0.000000, bitrate: 128 kb/s
  Stream #3:0: Audio: mp3, 44100 Hz, mono, fltp, 128 kb/s
Stream mapping:
  Stream #0:0 (wrapped_avframe) -> overlay
  Stream #1:0 (h264) -> scale:default
  Stream #1:1 (aac) -> adelay:default
  Stream #2:0 (mjpeg) -> scale:default
  Stream #3:0 (mp3float) -> adelay:default
  drawtext:default -> Stream #0:0 (libx264)
  amix:default -> Stream #0:1 (aac)
Press [q] to stop, [?] for help
[swscaler @ 000001f3f00b5040] deprecated pixel format used, make sure you did set range correctly
[swscaler @ 000001f3f044f6c0] deprecated pixel format used, make sure you did set range correctly
[swscaler @ 000001f3f0105080] deprecated pixel format used, make sure you did set range correctly
[swscaler @ 000001f3eec59040] deprecated pixel format used, make sure you did set range correctly
[libx264 @ 000001f3e74c7e00] using SAR=1/1
[libx264 @ 000001f3e74c7e00] using cpu capabilities: MMX2 SSE2Fast SSSE3 SSE4.2 AVX FMA3 BMI2 AVX2
[libx264 @ 000001f3e74c7e00] profile High, level 5.0, 4:2:0, 8-bit
[libx264 @ 000001f3e74c7e00] 264 - core 164 r3172 c1c9931 - H.264/MPEG-4 AVC codec - Copyleft 2003-2023 - http://www.videolan.org/x264.html - options: cabac=1 ref=3 deblock=1:0:0 analyse=0x3:0x113 me=hex subme=7 psy=1 psy_rd=1.00:0.00 mixed_ref=1 me_range=16 chroma_me=1 trellis=1 8x8dct=1 cqm=0 deadzone=21,11 fast_pskip=1 chroma_qp_offset=-2 threads=36 lookahead_threads=6 sliced_threads=0 nr=0 decimate=1 interlaced=0 bluray_compat=0 constrained_intra=0 bframes=3 b_pyramid=2 b_adapt=1 b_bias=0 direct=1 weightb=1 open_gop=0 weightp=2 keyint=250 keyint_min=25 scenecut=40 intra_refresh=0 rc_lookahead=40 rc=crf mbtree=1 crf=23.0 qcomp=0.60 qpmin=0 qpmax=69 qpstep=4 ip_ratio=1.40 aq=1:1.00
Output #0, mp4, to 'C:\Users\engsa\Desktop\CREATOCLONE\uploads\render-1766935064070.mp4':
  Metadata:
    encoder         : Lavf60.16.100
  Stream #0:0: Video: h264 (avc1 / 0x31637661), yuv420p(progressive), 2560x1440 [SAR 1:1 DAR 16:9], q=2-31, 30 fps, 15360 tbn
    Metadata:
      encoder         : Lavc60.31.102 libx264
    Side data:
      cpb: bitrate max/min/avg: 0/0/0 buffer size: 0 vbv_delay: N/A
  Stream #0:1: Audio: aac (LC) (mp4a / 0x6134706D), 44100 Hz, mono, fltp, 192 kb/s
    Metadata:
      encoder         : Lavc60.31.102 aac
frame=    0 fps=0.0 q=0.0 size=       0kB time=N/A bitrate=N/A speed=N/A    frame=    0 fps=0.0 q=0.0 size=       0kB time=00:00:01.39 bitrate=   0.3kbits/s speed=2.62x    frame=    0 fps=0.0 q=0.0 size=       0kB time=00:00:02.48 bitrate=   0.2kbits/s speed= 2.4x    frame=   34 fps= 22 q=29.0 size=    2816kB time=00:00:03.76 bitrate=6132.7kbits/s speed=2.45x    frame=   73 fps= 36 q=29.0 size=    4864kB time=00:00:05.01 bitrate=7944.6kbits/s speed=2.47x    frame=  106 fps= 42 q=29.0 size=    8192kB time=00:00:06.15 bitrate=10906.2kbits/s speed=2.42x    frame=  142 fps= 47 q=29.0 size=   11520kB time=00:00:07.31 bitrate=12902.5kbits/s speed= 2.4x    frame=  188 fps= 53 q=29.0 size=   16384kB time=00:00:08.89 bitrate=15092.1kbits/s speed=2.51x    frame=  280 fps= 69 q=29.0 size=   18432kB time=00:00:11.93 bitrate=12651.4kbits/s speed=2.95x    frame=  286 fps= 63 q=29.0 size=   18432kB time=00:00:11.93 bitrate=12651.4kbits/s speed=2.62x    frame=  480 fps= 95 q=29.0 size=   18432kB time=00:00:15.90 bitrate=9496.6kbits/s speed=3.15x    frame=  704 fps=127 q=29.0 size=   18432kB time=00:00:23.36 bitrate=6462.0kbits/s speed=4.21x    frame=  926 fps=153 q=29.0 size=   18688kB time=00:00:30.76 bitrate=4975.9kbits/s speed=5.08x    frame= 1142 fps=174 q=29.0 size=   18688kB time=00:00:37.96 bitrate=4032.3kbits/s speed=5.79x    frame= 1362 fps=193 q=29.0 size=   18688kB time=00:00:45.30 bitrate=3379.5kbits/s speed=6.42x    frame= 1578 fps=209 q=29.0 size=   18688kB time=00:00:52.50 bitrate=2916.0kbits/s speed=6.95x    frame= 1806 fps=224 q=29.0 size=   18688kB time=00:01:00.10 bitrate=2547.3kbits/s speed=7.46x    frame= 2026 fps=237 q=29.0 size=   18688kB time=00:01:07.43 bitrate=2270.3kbits/s speed=7.88x    frame= 2244 fps=248 q=29.0 size=   18688kB time=00:01:14.70 bitrate=2049.4kbits/s speed=8.24x    frame= 2466 fps=258 q=29.0 size=   18688kB time=00:01:22.10 bitrate=1864.7kbits/s speed=8.58x    frame= 2678 fps=266 q=29.0 size=   18688kB time=00:01:29.16 bitrate=1716.9kbits/s speed=8.86x    frame= 2911 fps=275 q=29.0 size=   18944kB time=00:01:36.96 bitrate=1600.4kbits/s speed=9.17x    frame= 3127 fps=282 q=29.0 size=   18944kB time=00:01:44.16 bitrate=1489.8kbits/s speed=9.41x    [out#0/mp4 @ 000001f3e7f59980] video:18768kB audio:257kB subtitle:0kB other streams:0kB global headers:0kB muxing overhead: 0.255178%
frame= 3300 fps=291 q=-1.0 Lsize=   19074kB time=00:01:49.90 bitrate=1421.8kbits/s speed=9.69x    
[libx264 @ 000001f3e74c7e00] frame I:14    Avg QP: 9.79  size: 27060
[libx264 @ 000001f3e74c7e00] frame P:834   Avg QP:11.36  size:  8303
[libx264 @ 000001f3e74c7e00] frame B:2452  Avg QP:14.64  size:  4859
[libx264 @ 000001f3e74c7e00] consecutive B-frames:  0.8%  0.2%  0.5% 98.5%
[libx264 @ 000001f3e74c7e00] mb I  I16..4: 81.9% 14.0%  4.0%
[libx264 @ 000001f3e74c7e00] mb P  I16..4:  0.4%  2.0%  1.0%  P16..4:  0.8%  0.5%  0.2%  0.0%  0.0%    skip:95.2%
[libx264 @ 000001f3e74c7e00] mb B  I16..4:  0.1%  0.2%  0.2%  B16..8:  1.5%  0.8%  0.2%  direct: 0.4%  skip:96.6%  L0:42.7% L1:43.0% BI:14.3%
[libx264 @ 000001f3e74c7e00] 8x8 transform intra:42.5% inter:46.6%
[libx264 @ 000001f3e74c7e00] coded y,uvDC,uvAC intra: 35.9% 26.7% 9.8% inter: 1.1% 0.6% 0.0%
[libx264 @ 000001f3e74c7e00] i16 v,h,dc,p: 83% 11%  3%  3%
[libx264 @ 000001f3e74c7e00] i8 v,h,dc,ddl,ddr,vr,hd,vl,hu: 36% 18% 24%  3%  4%  4%  4%  3%  4%
[libx264 @ 000001f3e74c7e00] i4 v,h,dc,ddl,ddr,vr,hd,vl,hu: 35% 25% 14%  4%  5%  5%  5%  4%  4%
[libx264 @ 000001f3e74c7e00] i8c dc,h,v,p: 73% 12% 12%  2%
[libx264 @ 000001f3e74c7e00] Weighted P-Frames: Y:0.7% UV:0.4%
[libx264 @ 000001f3e74c7e00] ref P L0: 55.7% 15.2% 19.8%  8.8%  0.4%
[libx264 @ 000001f3e74c7e00] ref B L0: 88.9%  9.0%  2.2%
[libx264 @ 000001f3e74c7e00] ref B L1: 96.1%  3.9%
[libx264 @ 000001f3e74c7e00] kb/s:1397.67
[aac @ 000001f3e74c7600] Qavg: 54932.520
